<?xml version="1.0" encoding="UTF-8"?>
<svg version="1.1" xmlns="http://www.w3.org/2000/svg" width="606" height="412">
<path d="M0 0 C1.8359375 0.21875 1.8359375 0.21875 4 1 C5.3515625 2.90625 5.3515625 2.90625 6.625 5.5 C9.2701257 10.65563941 12.10188739 15.64705113 15.0625 20.625 C17.9911447 25.57476912 20.89744657 30.52761538 23.6640625 35.5703125 C28.93212868 45.15141532 34.30389622 54.66604843 40 64 C43.02722706 68.96592365 45.99501595 73.93946786 48.75 79.0625 C51.37161041 83.92039225 54.13245238 88.6842403 56.9375 93.4375 C57.36562988 94.16412842 57.79375977 94.89075684 58.23486328 95.6394043 C60.2093663 98.98540267 62.19302539 102.32524545 64.19921875 105.65234375 C64.83472656 106.71582031 65.47023438 107.77929688 66.125 108.875 C66.68445313 109.80054688 67.24390625 110.72609375 67.8203125 111.6796875 C69 114 69 114 69 117 C69.66 117 70.32 117 71 117 C71.64291992 118.31194336 71.64291992 118.31194336 72.29882812 119.65039062 C73.84762385 122.69997119 75.48655623 125.64555213 77.21875 128.59375 C78.13720703 130.15802734 78.13720703 130.15802734 79.07421875 131.75390625 C80.9631764 134.9379302 82.86951615 138.11085909 84.78125 141.28125 C86.02083333 143.35416667 87.26041667 145.42708333 88.5 147.5 C89.14453125 148.55703125 89.7890625 149.6140625 90.453125 150.703125 C91.05640625 151.71890625 91.6596875 152.7346875 92.28125 153.78125 C93.10206055 155.1434668 93.10206055 155.1434668 93.93945312 156.53320312 C95 159 95 159 94 163 C32.95 163 -28.1 163 -91 163 C-92 159 -92 159 -91.07421875 157.25390625 C-90.38779297 156.41666016 -90.38779297 156.41666016 -89.6875 155.5625 C-87.55510744 152.81408292 -86.11085243 150.33255729 -85 147 C-84.34 147 -83.68 147 -83 147 C-82.34 144.69 -81.68 142.38 -81 140 C-80.34 140 -79.68 140 -79 140 C-78.93296875 139.34515625 -78.8659375 138.6903125 -78.796875 138.015625 C-77.68151432 133.79475026 -75.51684936 130.45376823 -73.25 126.75 C-72.33248089 125.2244707 -71.41580458 123.69843417 -70.5 122.171875 C-70.06300781 121.44677734 -69.62601563 120.72167969 -69.17578125 119.97460938 C-67.80931176 117.67975779 -66.51719123 115.3509732 -65.25 113 C-63.65016525 110.06509189 -61.89148214 107.31852321 -60 104.5625 C-57.9177598 101.50536871 -56.167902 98.4568671 -54.5625 95.125 C-52.29798642 90.42903755 -49.59328528 86.14763848 -46.75390625 81.78125 C-44.50177997 78.20994953 -42.51553562 74.52537869 -40.5234375 70.8046875 C-38.38653689 66.87059868 -36.1141185 63.02061392 -33.84765625 59.16015625 C-30.86827628 54.06434569 -27.95185986 48.93270826 -25.02929688 43.80419922 C-23.9850507 41.97379618 -22.93823639 40.14488509 -21.890625 38.31640625 C-15.74361332 27.76813292 -15.74361332 27.76813292 -10 17 C-9.34 17 -8.68 17 -8 17 C-7.690625 15.8553125 -7.690625 15.8553125 -7.375 14.6875 C-5.44105609 9.50101406 -2.7214854 4.80966916 0 0 Z M0 20 C0 20.66 0 21.32 0 22 C-0.66 22 -1.32 22 -2 22 C-2.61294922 23.25103516 -2.61294922 23.25103516 -3.23828125 24.52734375 C-5.13236531 28.26091521 -7.13337318 31.91540405 -9.1875 35.5625 C-9.7757959 36.60869507 -9.7757959 36.60869507 -10.37597656 37.67602539 C-13.52643855 43.2412924 -16.84428979 48.68169626 -20.2265625 54.109375 C-22.18407865 57.30004009 -24.00305895 60.54554136 -25.79296875 63.83203125 C-27.11987999 66.21531844 -28.52120404 68.54378416 -29.9375 70.875 C-32.05337678 74.37079643 -34.05999558 77.90364716 -36 81.5 C-38.40088836 85.950733 -40.94695182 90.28694653 -43.5703125 94.609375 C-45.31610979 97.52857702 -46.95592791 100.49859167 -48.59375 103.47924805 C-52.51073345 110.50057689 -56.64152338 117.40367176 -60.74609375 124.31640625 C-61.35517578 125.34701172 -61.96425781 126.37761719 -62.59179688 127.43945312 C-63.84474591 129.55952244 -65.10273616 131.67661891 -66.36523438 133.79101562 C-66.96529297 134.81001953 -67.56535156 135.82902344 -68.18359375 136.87890625 C-68.72556396 137.7922876 -69.26753418 138.70566895 -69.82592773 139.64672852 C-71.22321681 142.00909303 -71.22321681 142.00909303 -71 145 C-71.66 145 -72.32 145 -73 145 C-73.66 146.98 -74.32 148.96 -75 151 C-71.2043017 149.54870359 -67.61947982 147.845225 -64 146 C-62.54219428 145.26977905 -61.08384755 144.54063732 -59.625 143.8125 C-58.59246094 143.29623047 -58.59246094 143.29623047 -57.5390625 142.76953125 C-57.03117187 142.51558594 -56.52328125 142.26164062 -56 142 C-56 141.34 -56 140.68 -56 140 C-54.91525391 139.83177734 -54.91525391 139.83177734 -53.80859375 139.66015625 C-50.84036974 138.96247912 -48.711533 137.93548938 -46.0625 136.4375 C-45.11246094 135.90382813 -44.16242188 135.37015625 -43.18359375 134.8203125 C-42.13300781 134.21960938 -41.08242187 133.61890625 -40 133 C-38.78271035 132.30961671 -37.56525667 131.61952255 -36.34765625 130.9296875 C-29.77199539 127.20066102 -29.77199539 127.20066102 -23.2734375 123.33984375 C-20.99294853 121.99584424 -18.67043877 121.02259598 -16.22265625 120.02734375 C-12.06717433 118.10662012 -8.14165534 115.72079175 -4.18359375 113.42578125 C-0.70520628 111.86797582 1.239512 111.51493705 5 112 C7.74609375 113.171875 7.74609375 113.171875 10.4375 114.75 C11.76587891 115.51570313 11.76587891 115.51570313 13.12109375 116.296875 C14.07113281 116.85890625 15.02117187 117.4209375 16 118 C21.56991132 121.20875326 27.18298065 124.33464893 32.8125 127.4375 C33.65103516 127.90220703 34.48957031 128.36691406 35.35351562 128.84570312 C40.43427878 131.64578551 45.56254067 134.31224152 50.76147461 136.88598633 C53.49540522 138.24654095 56.19144759 139.66775937 58.875 141.125 C59.75929688 141.60195312 60.64359375 142.07890625 61.5546875 142.5703125 C64 144 64 144 66.0546875 145.57421875 C68.08029605 147.05885152 69.88772 147.860702 72.25 148.6875 C73.4875 149.120625 74.725 149.55375 76 150 C77.37739168 147.03011374 77.37739168 147.03011374 75.77734375 144.46875 C75.17019531 143.4890625 74.56304687 142.509375 73.9375 141.5 C70.06692516 135.12402301 66.33723183 128.67446365 63 122 C62.34 122 61.68 122 61 122 C60.8453125 120.88625 60.8453125 120.88625 60.6875 119.75 C59.93531659 116.74126638 58.86009043 115.44136869 57 113 C56.07556401 111.39109961 55.18195756 109.76426383 54.3125 108.125 C51.97455921 103.77816194 49.58070991 99.46871453 47.125 95.1875 C46.79056885 94.60427979 46.4561377 94.02105957 46.11157227 93.42016602 C45.42459516 92.22298453 44.73733666 91.02596448 44.04980469 89.82910156 C42.27850447 86.74291988 40.5146397 83.65249322 38.75 80.5625 C38.12609375 79.47066406 37.5021875 78.37882812 36.859375 77.25390625 C35.90358878 75.58128037 34.94831956 73.90833582 34.00219727 72.23022461 C31.3943124 67.61917271 28.57465757 63.18249235 25.68359375 58.74609375 C23.93921572 55.90085533 22.47802872 52.9909715 21 50 C19.93359785 48.11531897 18.84973017 46.24043015 17.75 44.375 C17.14027344 43.33730469 16.53054688 42.29960938 15.90234375 41.23046875 C14.96068359 39.63138672 14.96068359 39.63138672 14 38 C12.76973383 35.896476 11.54053576 33.79232689 10.3125 31.6875 C9.74015625 30.70652344 9.1678125 29.72554687 8.578125 28.71484375 C6.70135599 25.4862436 4.84484556 22.24692818 3 19 C1.7763932 18.9254644 1.7763932 18.9254644 0 20 Z " fill="#191919" transform="translate(295,49)"/>
<path d="M0 0 C1.8359375 0.21875 1.8359375 0.21875 4 1 C5.3515625 2.90625 5.3515625 2.90625 6.625 5.5 C9.2701257 10.65563941 12.10188739 15.64705113 15.0625 20.625 C17.9911447 25.57476912 20.89744657 30.52761538 23.6640625 35.5703125 C28.93212868 45.15141532 34.30389622 54.66604843 40 64 C43.02722706 68.96592365 45.99501595 73.93946786 48.75 79.0625 C51.37161041 83.92039225 54.13245238 88.6842403 56.9375 93.4375 C57.36562988 94.16412842 57.79375977 94.89075684 58.23486328 95.6394043 C60.2093663 98.98540267 62.19302539 102.32524545 64.19921875 105.65234375 C64.83472656 106.71582031 65.47023438 107.77929688 66.125 108.875 C66.68445313 109.80054688 67.24390625 110.72609375 67.8203125 111.6796875 C69 114 69 114 69 117 C69.66 117 70.32 117 71 117 C71.42023438 117.86367187 71.84046875 118.72734375 72.2734375 119.6171875 C74.47710895 123.93478813 76.97422088 128.04585994 79.4765625 132.1953125 C81.73608972 136.35516006 81.73608972 136.35516006 82 139 C79.86618551 142.2769294 78.74981988 143.75006004 75 145 C63 125.38297872 63 125.38297872 63 122 C62.34 122 61.68 122 61 122 C60.59136719 121.16597656 60.18273437 120.33195312 59.76171875 119.47265625 C57.86763329 115.73908203 55.86658499 112.08462131 53.8125 108.4375 C53.41957764 107.73858643 53.02665527 107.03967285 52.62182617 106.31958008 C49.49746116 100.79938746 46.19778907 95.41110885 42.84375 90.02734375 C40.05299766 85.44507031 37.52562651 80.73192092 35 76 C31.80015107 70.04585073 28.35239354 64.3322752 24.6484375 58.67578125 C22.91162658 55.85655025 21.46653337 52.96761857 20 50 C18.93359785 48.11531897 17.84973017 46.24043015 16.75 44.375 C16.1415625 43.33859375 15.533125 42.3021875 14.90625 41.234375 C14.2771875 40.16703125 13.648125 39.0996875 13 38 C11.74820682 35.87605583 10.4981505 33.75108686 9.25 31.625 C8.69828125 30.68914062 8.1465625 29.75328125 7.578125 28.7890625 C5.94664481 25.90570395 4.45674594 22.97492092 3 20 C2.01 20 1.02 20 0 20 C0 20.66 0 21.32 0 22 C-0.66 22 -1.32 22 -2 22 C-2.36738281 23.25103516 -2.36738281 23.25103516 -2.7421875 24.52734375 C-4.17398311 28.48034467 -6.03266412 31.92921092 -8.125 35.5625 C-8.52170898 36.25996338 -8.91841797 36.95742676 -9.32714844 37.67602539 C-12.50691987 43.2305068 -15.84170526 48.67754876 -19.2265625 54.109375 C-21.18407865 57.30004009 -23.00305895 60.54554136 -24.79296875 63.83203125 C-26.11987999 66.21531844 -27.52120404 68.54378416 -28.9375 70.875 C-31.05337678 74.37079643 -33.05999558 77.90364716 -35 81.5 C-37.40088836 85.950733 -39.94695182 90.28694653 -42.5703125 94.609375 C-44.31609266 97.52854838 -45.95596484 100.4984738 -47.59350586 103.47924805 C-49.09690458 106.17367467 -50.64212947 108.84014789 -52.19921875 111.50390625 C-52.81579346 112.55900391 -53.43236816 113.61410156 -54.06762695 114.70117188 C-55.94602059 117.90784968 -57.82793219 121.11243475 -59.7109375 124.31640625 C-60.31550781 125.34701172 -60.92007813 126.37761719 -61.54296875 127.43945312 C-62.78566727 129.55786989 -64.03053078 131.67501784 -65.27734375 133.79101562 C-65.87417969 134.81001953 -66.47101563 135.82902344 -67.0859375 136.87890625 C-67.6226709 137.7922876 -68.1594043 138.70566895 -68.71240234 139.64672852 C-70.11160191 142.03822109 -70.11160191 142.03822109 -71 145 C-71.66 145 -72.32 145 -73 145 C-73.495 145.99 -73.495 145.99 -74 147 C-74.99 144.525 -74.99 144.525 -76 142 C-77.98 142.33 -79.96 142.66 -82 143 C-81.67 142.01 -81.34 141.02 -81 140 C-80.34 140 -79.68 140 -79 140 C-78.93296875 139.34515625 -78.8659375 138.6903125 -78.796875 138.015625 C-77.68151432 133.79475026 -75.51684936 130.45376823 -73.25 126.75 C-72.33248089 125.2244707 -71.41580458 123.69843417 -70.5 122.171875 C-70.06300781 121.44677734 -69.62601563 120.72167969 -69.17578125 119.97460938 C-67.80931176 117.67975779 -66.51719123 115.3509732 -65.25 113 C-63.65016525 110.06509189 -61.89148214 107.31852321 -60 104.5625 C-57.9177598 101.50536871 -56.167902 98.4568671 -54.5625 95.125 C-52.29798642 90.42903755 -49.59328528 86.14763848 -46.75390625 81.78125 C-44.50177997 78.20994953 -42.51553562 74.52537869 -40.5234375 70.8046875 C-38.38653689 66.87059868 -36.1141185 63.02061392 -33.84765625 59.16015625 C-30.86827628 54.06434569 -27.95185986 48.93270826 -25.02929688 43.80419922 C-23.9850507 41.97379618 -22.93823639 40.14488509 -21.890625 38.31640625 C-15.74361332 27.76813292 -15.74361332 27.76813292 -10 17 C-9.34 17 -8.68 17 -8 17 C-7.690625 15.8553125 -7.690625 15.8553125 -7.375 14.6875 C-5.44105609 9.50101406 -2.7214854 4.80966916 0 0 Z M-74 142 C-73.34 142.66 -72.68 143.32 -72 144 C-72 143.34 -72 142.68 -72 142 C-72.66 142 -73.32 142 -74 142 Z " fill="#222222" transform="translate(295,49)"/>
<path d="M0 0 C1.02734375 2.15234375 1.02734375 2.15234375 1.9375 4.9375 C3.1973494 8.65477428 4.49868948 12.31080479 6 15.9375 C7.88073204 20.57321061 9.44007833 25.28496433 10.9921875 30.0390625 C12.23291224 33.68429255 13.65787414 37.23477153 15.1171875 40.796875 C16.19810116 43.49437635 17.12507322 46.22939853 18 49 C20.18875772 45.71686342 21.12176852 42.82086744 22.3125 39.0625 C24.15928199 33.34137892 26.28009943 27.84806547 28.6796875 22.33203125 C29.73440307 19.67027865 30.64862483 17.05080225 31.5078125 14.32421875 C31.7663501 13.50735596 32.0248877 12.69049316 32.29125977 11.84887695 C32.79742972 10.22525552 33.29057294 8.59750366 33.76928711 6.96557617 C35.49794311 1.42439668 35.49794311 1.42439668 37.79296875 -0.515625 C40.66771742 -1.14654329 43.30814158 -1.18895344 46.25 -1.125 C47.32765625 -1.10695313 48.4053125 -1.08890625 49.515625 -1.0703125 C50.74539063 -1.03550781 50.74539063 -1.03550781 52 -1 C53.16276247 2.4882874 52.83749397 3.0746565 51.48828125 6.3515625 C51.14216797 7.20363281 50.79605469 8.05570312 50.43945312 8.93359375 C50.06755859 9.82175781 49.69566406 10.70992188 49.3125 11.625 C48.95994141 12.48996094 48.60738281 13.35492188 48.24414062 14.24609375 C46.5426758 18.39555275 44.77900825 22.50565937 42.91796875 26.5859375 C41.28297343 30.2297446 39.97699582 33.90480224 38.75537109 37.70458984 C37.41063571 41.79095121 35.85254681 45.79654646 34.3125 49.8125 C33.96872314 50.71178223 33.62494629 51.61106445 33.27075195 52.53759766 C16.00295173 97.53187938 16.00295173 97.53187938 7 103 C3.2172761 103.49193381 -0.50622758 103.37663222 -4.3125 103.25 C-5.33923828 103.23195313 -6.36597656 103.21390625 -7.42382812 103.1953125 C-9.95017885 103.14831063 -12.47460469 103.08262272 -15 103 C-15.85803938 99.1599221 -15.93639295 96.54291008 -15.0625 92.6875 C-14.77052734 91.36298828 -14.77052734 91.36298828 -14.47265625 90.01171875 C-14.31667969 89.34785156 -14.16070312 88.68398438 -14 88 C-12.87271484 88.24169922 -12.87271484 88.24169922 -11.72265625 88.48828125 C-6.78962085 89.41543711 -2.30073063 89.82764573 2 87 C6.24794228 81.18021959 9.88327799 74.35269243 9 67 C7.91955605 63.1917025 6.45724552 59.60513764 4.86816406 55.98242188 C3.54297793 52.95640629 2.26812114 49.9094431 0.98657227 46.86474609 C0.28942115 45.21020871 -0.41059506 43.55687553 -1.11352539 41.90478516 C-3.33251633 36.67260466 -5.38741221 31.41661439 -7.2109375 26.03125 C-8.01613475 23.74204467 -8.01613475 23.74204467 -10 21 C-10.68124706 19.00491933 -11.34427209 17.00361307 -12 15 C-13.0136362 12.48004388 -14.04875978 9.97032097 -15.09765625 7.46484375 C-16.00498504 4.98638287 -16.55095389 2.59706047 -17 0 C-14.72979256 -0.19493195 -12.45879711 -0.38070418 -10.1875 -0.5625 C-8.92292969 -0.66691406 -7.65835937 -0.77132813 -6.35546875 -0.87890625 C-3 -1 -3 -1 0 0 Z " fill="#1A1A1A" transform="translate(477,279)"/>
<path d="M0 0 C6.35887987 4.60121553 9.31556566 8.31699161 11 16 C11.37331914 20.09264934 11.35125475 24.14710292 11.29296875 28.25390625 C11.28872391 29.39536606 11.28447906 30.53682587 11.28010559 31.71287537 C11.26342151 35.3296651 11.22578766 38.94588098 11.1875 42.5625 C11.17243992 45.02668462 11.15875384 47.49087803 11.14648438 49.95507812 C11.11355166 55.9702452 11.06345529 61.98508158 11 68 C8.89758397 68.13496251 6.7927039 68.23197307 4.6875 68.3125 C3.51574219 68.37050781 2.34398437 68.42851562 1.13671875 68.48828125 C-2 68 -2 68 -3.91796875 65.48046875 C-4.27503906 64.66191406 -4.63210937 63.84335937 -5 63 C-5.40734375 63.44988281 -5.8146875 63.89976562 -6.234375 64.36328125 C-12.55112075 70.21884866 -21.1557691 70.67242487 -29.359375 70.46484375 C-35.92209879 69.6268994 -40.60586771 66.5960882 -46 63 C-46 62.34 -46 61.68 -46 61 C-46.66 61 -47.32 61 -48 61 C-50.21440111 52.28079562 -51.37826671 44.26032986 -47 36 C-41.04040135 29.04713491 -34.46610335 26.06853616 -25.48046875 25.26953125 C-23.05030559 25.10452832 -20.61923051 24.9525204 -18.1875 24.8125 C-16.94806641 24.73064453 -15.70863281 24.64878906 -14.43164062 24.56445312 C-5.74665179 24 -5.74665179 24 -3 24 C-3.28875 22.7625 -3.5775 21.525 -3.875 20.25 C-4.03742188 19.55390625 -4.19984375 18.8578125 -4.3671875 18.140625 C-5.04840296 15.83626652 -5.6727274 14.0121793 -7 12 C-12.8996887 8.96242794 -18.6513229 8.46402974 -25 10 C-28.94172399 11.63350724 -32.4525936 13.6350624 -36 16 C-38.5625 15.875 -38.5625 15.875 -41 15 C-42.3125 12.9375 -42.3125 12.9375 -43 11 C-43.66 11 -44.32 11 -45 11 C-45.6875 9.25 -45.6875 9.25 -46 7 C-43.87124918 2.45866492 -39.4461187 0.73420039 -35 -1 C-22.54634839 -5.02559578 -12.1965364 -5.1791321 0 0 Z M-20.625 36.25 C-21.73101562 36.41435547 -21.73101562 36.41435547 -22.859375 36.58203125 C-27.53185808 37.37752568 -30.64575355 38.4204203 -34 42 C-34.87592663 44.18758839 -34.87592663 44.18758839 -34.9375 46.5 C-35.00839844 47.2528125 -35.07929688 48.005625 -35.15234375 48.78125 C-34.97599592 51.34959793 -34.37467546 52.83384472 -33 55 C-27.94783224 58.53651743 -22.94847534 58.79190229 -17 58 C-10.80127357 56.35722798 -7.35623567 52.77516246 -4.0546875 47.39453125 C-2.43391904 43.71478656 -2.56742616 40.96526019 -3 37 C-3.66 37 -4.32 37 -5 37 C-5 36.34 -5 35.68 -5 35 C-10.35397963 34.85873405 -15.35080026 35.34611771 -20.625 36.25 Z " fill="#1B1B1B" transform="translate(190,280)"/>
<path d="M0 0 C1.45399149 5.82524857 1.04364309 12.13850849 0.95703125 18.09765625 C0.94695038 18.82197845 0.93686951 19.54630066 0.92648315 20.29257202 C0.88066232 23.31010694 0.83162253 26.32710907 0.75317383 29.34399414 C0.29934121 41.74241948 0.29934121 41.74241948 5 53 C8.02657355 55.93755668 10.73585952 56.22524001 14.8125 56.4375 C19.98761225 56.24468658 23.89062241 55.19543172 28 52 C32.21338198 46.31869576 32.60023194 40.44864424 32.609375 33.59375 C32.62591125 32.6284436 32.64244751 31.66313721 32.65948486 30.6685791 C32.70772464 27.61231979 32.72928248 24.55655719 32.75 21.5 C32.77817975 19.416642 32.80810996 17.3333069 32.83984375 15.25 C32.91347724 10.1667076 32.96319847 5.08368706 33 0 C37.47213595 -2.23606798 43.01472757 -0.38348249 48 0 C48 22.77 48 45.54 48 69 C43.05 69 38.1 69 33 69 C32.34 67.68 31.68 66.36 31 65 C30.31292969 65.34933594 29.62585938 65.69867188 28.91796875 66.05859375 C28.01691406 66.51363281 27.11585938 66.96867187 26.1875 67.4375 C25.29417969 67.88996094 24.40085937 68.34242188 23.48046875 68.80859375 C16.86680683 71.98523452 8.56708064 72.31921952 1.51171875 70.28125 C-0.4744098 69.32482305 -2.20852964 68.28200793 -4 67 C-4.56332031 66.61457031 -5.12664062 66.22914063 -5.70703125 65.83203125 C-10.93169513 61.90399928 -12.96975214 57.2845882 -14 51 C-14.08285127 49.25179714 -14.11786822 47.50089205 -14.11352539 45.75073242 C-14.11341209 44.21971138 -14.11341209 44.21971138 -14.11329651 42.65776062 C-14.10813522 41.5680043 -14.10297394 40.47824799 -14.09765625 39.35546875 C-14.0962413 38.2305452 -14.09482635 37.10562164 -14.09336853 35.9466095 C-14.08777931 32.36021241 -14.07522872 28.77387816 -14.0625 25.1875 C-14.05748361 22.75325611 -14.05292094 20.31901124 -14.04882812 17.88476562 C-14.0378134 11.92315571 -14.02108594 5.96158234 -14 0 C-12.04235617 -0.19456705 -10.08384679 -0.38044247 -8.125 -0.5625 C-6.48917969 -0.71912109 -6.48917969 -0.71912109 -4.8203125 -0.87890625 C-2 -1 -2 -1 0 0 Z " fill="#161616" transform="translate(232,279)"/>
<path d="M0 0 C1.30055604 2.60111208 0.93112435 4.18741322 0.625 7.0625 C0.48964844 8.41021484 0.48964844 8.41021484 0.3515625 9.78515625 C0 12 0 12 -1 13 C-3.75100321 13.03182979 -6.48880906 12.93161518 -9.23828125 12.83984375 C-12.12523649 13.00726265 -13.63944472 13.35444587 -16 15 C-20.55334647 21.9659405 -19.47737869 32.05898903 -19 40 C-18.67 40.66 -18.34 41.32 -18 42 C-11.565 41.505 -11.565 41.505 -5 41 C-2.71740795 44.42388808 -2.83784466 45.20194505 -3.3125 49.125 C-3.41175781 50.01445312 -3.51101563 50.90390625 -3.61328125 51.8203125 C-4 54 -4 54 -5 55 C-8.36109285 55.32526705 -11.7233399 55.5135946 -15.09375 55.71875 C-17.89050132 55.6785989 -17.89050132 55.6785989 -19 57 C-19.12299166 58.68709347 -19.17785258 60.37920903 -19.20532227 62.07055664 C-19.22526749 63.15160172 -19.24521271 64.23264679 -19.26576233 65.34645081 C-19.29083107 67.110485 -19.29083107 67.110485 -19.31640625 68.91015625 C-19.33718735 70.10732773 -19.35796844 71.30449921 -19.37937927 72.53794861 C-19.44500279 76.37940487 -19.50381903 80.22093201 -19.5625 84.0625 C-19.60567305 86.65951267 -19.64928693 89.25651806 -19.69335938 91.85351562 C-19.80069716 98.23560117 -19.90243931 104.61775793 -20 111 C-21.41925781 111.22623047 -21.41925781 111.22623047 -22.8671875 111.45703125 C-25.86258405 111.90044792 -25.86258405 111.90044792 -28.125 112.6875 C-30 113 -30 113 -34 111 C-34.33 92.85 -34.66 74.7 -35 56 C-38.96 55.67 -42.92 55.34 -47 55 C-48 54 -48 54 -48.09765625 51.27734375 C-48.06510417 48.18489583 -48.03255208 45.09244792 -48 42 C-44.04 42 -40.08 42 -36 42 C-36 41.34 -36 40.68 -36 40 C-35.34 40 -34.68 40 -34 40 C-34.02356567 39.07102905 -34.02356567 39.07102905 -34.04760742 38.12329102 C-34.1106403 35.26978995 -34.14920437 32.41643609 -34.1875 29.5625 C-34.21263672 28.58861328 -34.23777344 27.61472656 -34.26367188 26.61132812 C-34.34154257 18.85021527 -33.3237617 12.45043404 -28.9375 5.9375 C-28.298125 5.298125 -27.65875 4.65875 -27 4 C-26.34 4 -25.68 4 -25 4 C-25 3.34 -25 2.68 -25 2 C-16.55646895 -0.69280179 -8.78562651 -1.81160981 0 0 Z " fill="#171717" transform="translate(459,237)"/>
<path d="M0 0 C0.68578125 -0.03738281 1.3715625 -0.07476562 2.078125 -0.11328125 C4.0859375 -0.1484375 4.0859375 -0.1484375 7.625 0.375 C9.38671875 2.3515625 9.38671875 2.3515625 10.625 5.375 C11.0257373 6.34203857 11.0257373 6.34203857 11.43457031 7.32861328 C12.34787144 9.58125265 13.20894542 11.8490892 14.0625 14.125 C16.80841672 21.34719329 16.80841672 21.34719329 19.875 28.4375 C21.48233665 31.93944199 22.72324974 35.48863106 23.8984375 39.15625 C25.02817564 42.60620304 26.33024144 45.98396569 27.625 49.375 C29.53193972 45.75272695 31.04905681 41.98577862 32.5625 38.1875 C32.83046387 37.5176709 33.09842773 36.8478418 33.37451172 36.15771484 C35.0425181 31.95059819 36.54333301 27.72392258 37.9140625 23.41015625 C38.95873981 20.41962394 40.32235417 17.59112294 41.65234375 14.71875 C43.03812583 11.37951607 43.93412911 7.94311489 44.81640625 4.44140625 C45.625 2.375 45.625 2.375 48.625 0.375 C51.54296875 0.1796875 51.54296875 0.1796875 54.8125 0.25 C55.89917969 0.26804687 56.98585938 0.28609375 58.10546875 0.3046875 C59.35263672 0.33949219 59.35263672 0.33949219 60.625 0.375 C61.86082128 4.64389093 61.33855952 7.0357878 59.7109375 11.12890625 C59.27910156 12.23169922 58.84726563 13.33449219 58.40234375 14.47070312 C57.93957031 15.61474609 57.47679687 16.75878906 57 17.9375 C56.56042969 19.05447266 56.12085937 20.17144531 55.66796875 21.32226562 C52.10042964 30.34573331 48.489315 39.36895887 44.4375 48.1875 C43.28590327 50.74203401 42.44329772 53.02912822 41.6875 55.75 C40.18187544 60.88683674 37.89801054 65.52989859 35.625 70.375 C30.015 70.375 24.405 70.375 18.625 70.375 C17.12944834 67.38389669 16.32733348 65.48706385 15.625 62.375 C14.24288172 57.57494055 12.56999805 53.11592396 10.25 48.6875 C7.64311607 43.64493048 5.80110322 38.45884515 3.9453125 33.1015625 C0.83360931 24.31882627 -2.66734027 15.64834803 -6.61328125 7.20703125 C-7.41844981 5.27049763 -7.99931892 3.43903605 -8.375 1.375 C-6.38195963 -0.61804037 -2.71259808 0.05546204 0 0 Z " fill="#181818" transform="translate(71.375,277.625)"/>
<path d="M0 0 C3.155625 0.2784375 3.155625 0.2784375 6.375 0.5625 C6.375 6.1725 6.375 11.7825 6.375 17.5625 C11.87939121 17.85141837 11.87939121 17.85141837 17.38427734 18.13061523 C23.15277778 18.45138889 23.15277778 18.45138889 25.375 19.5625 C25.375 23.5225 25.375 27.4825 25.375 31.5625 C22.07539859 33.2123007 18.38372116 32.94508361 14.75 33.125 C13.94820313 33.16818359 13.14640625 33.21136719 12.3203125 33.25585938 C10.3387489 33.36201457 8.35689729 33.46276855 6.375 33.5625 C6.46863645 38.75894229 6.57475311 43.95492426 6.69238281 49.15087891 C6.73063771 50.9180607 6.7654967 52.68531944 6.796875 54.45263672 C6.84260152 56.99474563 6.90058289 59.53632648 6.9609375 62.078125 C6.97248871 62.86680969 6.98403992 63.65549438 6.99594116 64.46807861 C7.10796247 69.83383725 7.10796247 69.83383725 9.375 74.5625 C12.37813748 76.06406874 15.16567522 75.65531204 18.5 75.625 C19.78132813 75.61597656 21.06265625 75.60695313 22.3828125 75.59765625 C23.37023437 75.58605469 24.35765625 75.57445312 25.375 75.5625 C25.375 79.8525 25.375 84.1425 25.375 88.5625 C20.68720478 90.43761809 17.33547795 90.89773899 12.4375 90.875 C11.40206055 90.89916992 11.40206055 90.89916992 10.34570312 90.92382812 C4.56526742 90.92930721 0.71493757 89.36759469 -3.8125 85.875 C-8.71979623 79.61396687 -9.04926041 73.00024901 -8.91796875 65.375 C-8.91372391 64.43188965 -8.90947906 63.4887793 -8.90510559 62.51708984 C-8.8884357 59.53192482 -8.85080575 56.54745782 -8.8125 53.5625 C-8.79743804 51.52735356 -8.78375229 49.49219645 -8.77148438 47.45703125 C-8.73857055 42.4919223 -8.68686999 37.52732913 -8.625 32.5625 C-9.54023438 32.57410156 -10.45546875 32.58570313 -11.3984375 32.59765625 C-13.18121094 32.61119141 -13.18121094 32.61119141 -15 32.625 C-16.18335938 32.63660156 -17.36671875 32.64820313 -18.5859375 32.66015625 C-21.625 32.5625 -21.625 32.5625 -23.625 31.5625 C-23.625 27.6025 -23.625 23.6425 -23.625 19.5625 C-22.69816406 19.50191406 -21.77132813 19.44132812 -20.81640625 19.37890625 C-19.02009766 19.25322266 -19.02009766 19.25322266 -17.1875 19.125 C-15.39505859 19.00318359 -15.39505859 19.00318359 -13.56640625 18.87890625 C-10.73929756 18.88593886 -10.73929756 18.88593886 -9.625 17.5625 C-9.38798761 14.70372091 -9.20280818 11.86366703 -9.0625 9 C-9.01931641 8.19369141 -8.97613281 7.38738281 -8.93164062 6.55664062 C-8.82524738 4.55881195 -8.72459112 2.5606793 -8.625 0.5625 C-5.68113377 -0.90943312 -3.25109964 -0.28686173 0 0 Z " fill="#1D1D1D" transform="translate(345.625,259.4375)"/>
<path d="M0 0 C4.62 0 9.24 0 14 0 C14 36.3 14 72.6 14 110 C10.7 110 7.4 110 4 110 C4 110.66 4 111.32 4 112 C0.125 110.25 0.125 110.25 -1 108 C-1.0803127 106.55510143 -1.09739906 105.10644333 -1.08229065 103.65939331 C-1.07525116 102.74791534 -1.06821167 101.83643738 -1.06095886 100.89733887 C-1.04801285 99.89464966 -1.03506683 98.89196045 -1.02172852 97.85888672 C-1.01212097 96.80520905 -1.00251343 95.75153137 -0.99261475 94.66592407 C-0.95953757 91.17044575 -0.91923845 87.67508903 -0.87890625 84.1796875 C-0.85461366 81.76116367 -0.83076968 79.3426353 -0.80735779 76.92410278 C-0.74443123 70.54867387 -0.6753889 64.17332509 -0.60510254 57.79797363 C-0.53449641 51.29634256 -0.46963328 44.79465453 -0.40429688 38.29296875 C-0.27517408 25.52858324 -0.13959481 12.76427498 0 0 Z " fill="#101010" transform="translate(299,238)"/>
<path d="M0 0 C1.1859375 0.00257813 2.371875 0.00515625 3.59375 0.0078125 C4.7796875 0.00523437 5.965625 0.00265625 7.1875 0 C10.09375 0.1328125 10.09375 0.1328125 11.09375 1.1328125 C11.18800595 3.28024799 11.21117648 5.43082276 11.20727539 7.58032227 C11.20742142 8.25346466 11.20756744 8.92660706 11.2077179 9.62014771 C11.20701878 11.85487034 11.19922652 14.0895106 11.19140625 16.32421875 C11.18954206 17.86978612 11.18811816 19.41535407 11.18711853 20.96092224 C11.1832934 25.03638327 11.17346317 29.11180887 11.16241455 33.18725586 C11.15220032 37.34293132 11.14762089 41.49861249 11.14257812 45.65429688 C11.13184089 53.81381837 11.11476454 61.97331103 11.09375 70.1328125 C8.12375 70.6278125 8.12375 70.6278125 5.09375 71.1328125 C5.09375 71.4628125 5.09375 71.7928125 5.09375 72.1328125 C1.41388404 72.3372495 -0.68985346 71.87846361 -3.90625 70.1328125 C-3.92937566 61.15360473 -3.94716623 52.17440713 -3.95806217 43.19517612 C-3.96329051 39.02618422 -3.97038726 34.85721263 -3.98168945 30.68823242 C-3.99252008 26.66823564 -3.99852721 22.64825845 -4.00112724 18.62824821 C-4.00298118 17.09118275 -4.00660119 15.55411841 -4.01198006 14.01706123 C-4.01919284 11.87145763 -4.02024084 9.72593595 -4.01977539 7.58032227 C-4.021996 6.35676529 -4.02421661 5.13320831 -4.02650452 3.87257385 C-3.86053526 0.09129252 -3.80239196 0.17376522 0 0 Z " fill="#1A1A1A" transform="translate(389.90625,277.8671875)"/>
<path d="M0 0 C0.495 1.485 0.495 1.485 1 3 C0.21625 3.144375 -0.5675 3.28875 -1.375 3.4375 C-4.15156763 4.71536857 -4.15156763 4.71536857 -4.77734375 7.13671875 C-5.26835609 9.41974691 -5.68112401 11.68695927 -6 14 C-6.495 13.01 -6.495 13.01 -7 12 C-13.17080005 9.26945105 -18.46809255 8.41969981 -25 10 C-28.94172399 11.63350724 -32.4525936 13.6350624 -36 16 C-38.5625 15.875 -38.5625 15.875 -41 15 C-42.3125 12.9375 -42.3125 12.9375 -43 11 C-43.66 11 -44.32 11 -45 11 C-45.6875 9.25 -45.6875 9.25 -46 7 C-43.87124918 2.45866492 -39.4461187 0.73420039 -35 -1 C-22.73539897 -4.96448589 -11.98798355 -5.40634552 0 0 Z " fill="#212121" transform="translate(190,280)"/>
<path d="M0 0 C0.99 0 1.98 0 3 0 C1.62845496 2.95409701 0.01136276 5.44008376 -2 8 C0.31 8.66 2.62 9.32 5 10 C0.5528638 18.99721536 -4.50384127 27.64464573 -9.66015625 36.2487793 C-10.0778125 36.95043213 -10.49546875 37.65208496 -10.92578125 38.375 C-11.30130127 39.00148437 -11.67682129 39.62796875 -12.0637207 40.2734375 C-13.14772626 42.15275922 -13.14772626 42.15275922 -14 45 C-14.66 45 -15.32 45 -16 45 C-16.33 45.66 -16.66 46.32 -17 47 C-17.66 45.35 -18.32 43.7 -19 42 C-21.97 42.495 -21.97 42.495 -25 43 C-24.67 42.01 -24.34 41.02 -24 40 C-23.34 40 -22.68 40 -22 40 C-21.93296875 39.34515625 -21.8659375 38.6903125 -21.796875 38.015625 C-20.68151432 33.79475026 -18.51684936 30.45376823 -16.25 26.75 C-15.33248089 25.2244707 -14.41580458 23.69843417 -13.5 22.171875 C-13.06300781 21.44677734 -12.62601563 20.72167969 -12.17578125 19.97460938 C-10.80931176 17.67975779 -9.51719123 15.3509732 -8.25 13 C-6.54939361 9.91840474 -4.75922249 6.91089501 -2.875 3.9375 C-2.39804688 3.18339844 -1.92109375 2.42929688 -1.4296875 1.65234375 C-0.95789063 1.10707031 -0.48609375 0.56179687 0 0 Z M-17 42 C-16.34 42.66 -15.68 43.32 -15 44 C-15 43.34 -15 42.68 -15 42 C-15.66 42 -16.32 42 -17 42 Z " fill="#272727" transform="translate(238,149)"/>
<path d="M0 0 C2.82885287 1.72245708 3.34511514 2.91088159 5 6 C6.09244247 10.58825837 5.34642399 13.35334189 3.125 17.5 C0.61820757 20.13608259 -1.48251131 20.44087557 -5.0625 20.5625 C-8.99181683 20.47168374 -11.1204883 19.71276938 -14 17 C-15.45091111 12.64726668 -15.6247466 8.54428779 -15 4 C-11.41548372 -1.01832279 -5.69865794 -1.21446809 0 0 Z " fill="#1D1D1D" transform="translate(399,245)"/>
<path d="M0 0 C0.33 1.32 0.66 2.64 1 4 C0.01 4.33 -0.98 4.66 -2 5 C-0.35 5.99 1.3 6.98 3 8 C2.76171875 9.859375 2.76171875 9.859375 2 12 C-5.09073656 17.00522581 -13.73065276 16.42895749 -22 16 C-20.68 15.34 -19.36 14.68 -18 14 C-18 13.01 -18 12.02 -18 11 C-16 8 -16 8 -14 6 C-15.32 5.67 -16.64 5.34 -18 5 C-18.33 5.66 -18.66 6.32 -19 7 C-19 6.34 -19 5.68 -19 5 C-20.32 4.34 -21.64 3.68 -23 3 C-19.25 1.875 -19.25 1.875 -17 3 C-10.55611483 3.61258141 -5.73094051 2.99005592 0 0 Z " fill="#1F1F1F" transform="translate(180,334)"/>
<path d="M0 0 C0.99 0 1.98 0 3 0 C3.66 1.32 4.32 2.64 5 4 C5.99 3.67 6.98 3.34 8 3 C8 2.01 8 1.02 8 0 C11.30276468 1.37148703 12.72810469 2.66115548 14.5 5.75 C14.91636719 6.45640625 15.33273437 7.1628125 15.76171875 7.890625 C16.17035156 8.58671875 16.57898438 9.2828125 17 10 C18.3094233 12.01710515 19.65448682 14.00664714 21 16 C20.67 16.66 20.34 17.32 20 18 C19.34 18 18.68 18 18 18 C18 18.99 18 19.98 18 21 C17.34 21.33 16.68 21.66 16 22 C16 23.98 16 25.96 16 28 C13.85176353 25.85176353 12.79474281 23.93085513 11.375 21.25 C8.53082227 15.94180691 5.56590727 10.71500342 2.54052734 5.50878906 C0 1.10652959 0 1.10652959 0 0 Z " fill="#2A2A2A" transform="translate(337,136)"/>
<path d="M0 0 C1.796875 0.1640625 1.796875 0.1640625 4 1 C5.703125 3.3984375 5.703125 3.3984375 7.25 6.375 C7.77078125 7.35210937 8.2915625 8.32921875 8.828125 9.3359375 C10 12 10 12 10 15 C8.68 14.67 7.36 14.34 6 14 C5.67 14.66 5.34 15.32 5 16 C5.66 16.33 6.32 16.66 7 17 C6.01 19.475 6.01 19.475 5 22 C2.9375 19.6875 2.9375 19.6875 1 17 C1.33 16.01 1.66 15.02 2 14 C0.62831762 11.80961577 0.62831762 11.80961577 -1 10 C-2.32 10.99 -3.64 11.98 -5 13 C-5.66 12.67 -6.32 12.34 -7 12 C-6.5875 11.319375 -6.175 10.63875 -5.75 9.9375 C-3.79034942 6.64808652 -1.8926147 3.32839137 0 0 Z " fill="#282828" transform="translate(295,49)"/>
<path d="M0 0 C0.66 0 1.32 0 2 0 C2 0.66 2 1.32 2 2 C3.03125 1.979375 4.0625 1.95875 5.125 1.9375 C8.01668453 2.30264143 8.8518287 2.82965122 10.80078125 5.0703125 C12.29119366 7.33972328 13.68898944 9.62289294 15 12 C14.67 12.66 14.34 13.32 14 14 C13.34 13.67 12.68 13.34 12 13 C12 13.99 12 14.98 12 16 C10.02 16.99 10.02 16.99 8 18 C7.67 16.35 7.34 14.7 7 13 C5.68 13 4.36 13 3 13 C-0.60231259 8.88307133 -0.26360299 5.18419218 0 0 Z " fill="#212121" transform="translate(333,123)"/>
<path d="M0 0 C1.66666667 1.66666667 3.33333333 3.33333333 5 5 C4.73230142 9.68472509 2.47669384 13.13927137 0 17 C-0.99 17.66 -1.98 18.32 -3 19 C-6.6875 18.125 -6.6875 18.125 -10 17 C-9.57847656 16.51789063 -9.15695313 16.03578125 -8.72265625 15.5390625 C-8.17480469 14.90742188 -7.62695312 14.27578125 -7.0625 13.625 C-6.51722656 12.99851563 -5.97195312 12.37203125 -5.41015625 11.7265625 C-3.93041376 10.04367666 -3.93041376 10.04367666 -3 8 C-3.66 8 -4.32 8 -5 8 C-4.45773019 4.20411134 -2.79872437 2.52788007 0 0 Z M0 5 C0 5.99 0 6.98 0 8 C0.66 7.67 1.32 7.34 2 7 C2 6.34 2 5.68 2 5 C1.34 5 0.68 5 0 5 Z " fill="#1F1F1F" transform="translate(244,141)"/>
<path d="M0 0 C2.36810318 0.94724127 3.75207953 1.65291134 5.25 3.75 C6.19251213 6.57753638 6.1345485 9.03993304 6 12 C3.26930259 13.01136941 2.13998707 13.04557718 -0.6875 12.125 C-3 11 -3 11 -4 10 C-4.04080783 8.00041636 -4.04254356 5.99954746 -4 4 C-4.66 4 -5.32 4 -6 4 C-6 3.34 -6 2.68 -6 2 C-4.7934375 1.7834375 -4.7934375 1.7834375 -3.5625 1.5625 C-1.07896294 1.25864751 -1.07896294 1.25864751 0 0 Z " fill="#1B1B1B" transform="translate(314,81)"/>
<path d="M0 0 C2 1 2 1 3.125 4.0625 C3.41375 5.031875 3.7025 6.00125 4 7 C3.278125 7.4125 2.55625 7.825 1.8125 8.25 C-0.98012622 9.98763409 -3.44818316 11.93095932 -6 14 C-6.99 14.495 -6.99 14.495 -8 15 C-8.33 12.69 -8.66 10.38 -9 8 C-8.34 8 -7.68 8 -7 8 C-6.95875 7.4225 -6.9175 6.845 -6.875 6.25 C-5.55934042 2.86687535 -3.03447636 1.80777315 0 0 Z " fill="#131313" transform="translate(294,58)"/>
<path d="M0 0 C0 0.66 0 1.32 0 2 C-0.66 2 -1.32 2 -2 2 C-1.34 3.32 -0.68 4.64 0 6 C-2.3125 8.5 -2.3125 8.5 -5 11 C-8.10551666 11 -9.35261084 10.4606285 -12 9 C-12 8.34 -12 7.68 -12 7 C-11.34 6.67 -10.68 6.34 -10 6 C-9.7834375 5.0409375 -9.7834375 5.0409375 -9.5625 4.0625 C-8.24322441 -0.77484382 -4.15361951 -0.18460531 0 0 Z " fill="#131313" transform="translate(190,332)"/>
<path d="M0 0 C1.32 0.66 2.64 1.32 4 2 C3.67 2.66 3.34 3.32 3 4 C2.34 4 1.68 4 1 4 C1 4.99 1 5.98 1 7 C0.01 7.495 0.01 7.495 -1 8 C-1 9.98 -1 11.96 -1 14 C-3.45140787 11.54859213 -4.63817703 9.17758693 -6 6 C-5.67 5.01 -5.34 4.02 -5 3 C-4.34 3 -3.68 3 -3 3 C-1.37485532 1.54166642 -1.37485532 1.54166642 0 0 Z " fill="#313131" transform="translate(354,150)"/>
<path d="M0 0 C0.99 0.33 1.98 0.66 3 1 C3.99 0.67 4.98 0.34 6 0 C6.66 0.33 7.32 0.66 8 1 C8 2.98 8 4.96 8 7 C5.36 7 2.72 7 0 7 C-0.93423645 3.98968256 -1.04449911 3.13349732 0 0 Z " fill="#171717" transform="translate(389,258)"/>
<path d="M0 0 C2 2 2 2 2.01171875 4.34765625 C1.90472656 5.24355469 1.79773438 6.13945312 1.6875 7.0625 C1.58824219 7.96097656 1.48898437 8.85945313 1.38671875 9.78515625 C1 12 1 12 0 13 C-2.18639453 13.07258946 -4.37500389 13.08373783 -6.5625 13.0625 C-8.35880859 13.04896484 -8.35880859 13.04896484 -10.19140625 13.03515625 C-11.11824219 13.02355469 -12.04507812 13.01195312 -13 13 C-13 12.67 -13 12.34 -13 12 C-11.14375 11.938125 -11.14375 11.938125 -9.25 11.875 C-5.6024752 11.42309427 -5.16239865 11.18321898 -2.5625 8.25 C-1.18833074 5.39172794 -0.36820038 3.12970322 0 0 Z " fill="#606060" transform="translate(454,279)"/>
<path d="M0 0 C0.99 0 1.98 0 3 0 C2.37104172 2.93513864 1.41105919 5.35426402 0 8 C-0.33 8.66 -0.66 9.32 -1 10 C-1.99 10.33 -2.98 10.66 -4 11 C-4.99 12.485 -4.99 12.485 -6 14 C-6.66 13.67 -7.32 13.34 -8 13 C-6.74210557 10.82482863 -5.46994813 8.6606219 -4.1875 6.5 C-3.83107422 5.87996094 -3.47464844 5.25992188 -3.10742188 4.62109375 C-2.15368233 3.0286112 -1.08302607 1.50753916 0 0 Z " fill="#3C3C3C" transform="translate(248,131)"/>
<path d="M0 0 C2 1.8125 2 1.8125 4 4 C4 4.99 4 5.98 4 7 C4.66 7.66 5.32 8.32 6 9 C3.23723823 8.47731534 0.6739124 7.89130413 -2 7 C-1.125 1.125 -1.125 1.125 0 0 Z " fill="#0C0C0C" transform="translate(427,341)"/>
<path d="M0 0 C0.99 0.33 1.98 0.66 3 1 C3.33 2.98 3.66 4.96 4 7 C3.01 6.67 2.02 6.34 1 6 C1 6.66 1 7.32 1 8 C1.66 8 2.32 8 3 8 C2.67 8.99 2.34 9.98 2 11 C0.3372974 8.32521756 -0.99983813 6.0004856 -2 3 C-1.34 2.01 -0.68 1.02 0 0 Z " fill="#353535" transform="translate(307,77)"/>
<path d="M0 0 C0.66 0 1.32 0 2 0 C0.31326082 4.49797113 -1.81673892 8.72886302 -4 13 C-4.66 11.68 -5.32 10.36 -6 9 C-4.68 8.34 -3.36 7.68 -2 7 C-2.33 6.01 -2.66 5.02 -3 4 C-1.6875 1.8125 -1.6875 1.8125 0 0 Z " fill="#393939" transform="translate(254,135)"/>
<path d="M0 0 C5.28 0.66 10.56 1.32 16 2 C15.67 2.66 15.34 3.32 15 4 C9.5610835 4.21755666 5.12919186 4.10428384 0 2 C0 1.34 0 0.68 0 0 Z " fill="#020202" transform="translate(350,276)"/>
<path d="M0 0 C4 4.75 4 4.75 4 7 C3.34 7 2.68 7 2 7 C2 6.34 2 5.68 2 5 C1.01 5.33 0.02 5.66 -1 6 C-1.99 6.33 -2.98 6.66 -4 7 C-3.43628586 3.73045798 -2.50037734 2.17424117 0 0 Z " fill="#181818" transform="translate(308,73)"/>
<path d="M0 0 C0.99 0 1.98 0 3 0 C1.44499019 3.81684226 -1.03595495 6.19195732 -4 9 C-4 4.94519369 -2.45129908 3.15167025 0 0 Z " fill="#434343" transform="translate(238,149)"/>
<path d="M0 0 C5.28 0.66 10.56 1.32 16 2 C16 2.33 16 2.66 16 3 C12.37 3 8.74 3 5 3 C4.67 3.66 4.34 4.32 4 5 C4 4.34 4 3.68 4 3 C2.68 2.34 1.36 1.68 0 1 C0 0.67 0 0.34 0 0 Z " fill="#4E4E4E" transform="translate(157,336)"/>
<path d="M0 0 C0.99 0.99 1.98 1.98 3 3 C1.1875 5 1.1875 5 -1 7 C-1.99 7 -2.98 7 -4 7 C-4 4 -4 4 -2 1.8125 C-1.34 1.214375 -0.68 0.61625 0 0 Z " fill="#0F0F0F" transform="translate(244,141)"/>
<path d="M0 0 C0.66 0.33 1.32 0.66 2 1 C0.625 2.5 0.625 2.5 -1 4 C-1.66 4 -2.32 4 -3 4 C-3 4.66 -3 5.32 -3 6 C-4.98 6.99 -4.98 6.99 -7 8 C-6.4376049 4.73810844 -5.5859495 3.08865152 -3 1 C-2.01 0.67 -1.02 0.34 0 0 Z " fill="#0A0A0A" transform="translate(149,312)"/>
<path d="M0 0 C0.66 1.32 1.32 2.64 2 4 C2.99 4 3.98 4 5 4 C5 4.66 5 5.32 5 6 C5.99 6.66 6.98 7.32 8 8 C4.37471432 8.20140476 2.13498292 7.85776765 -1 6 C-0.67 4.02 -0.34 2.04 0 0 Z " fill="#040404" transform="translate(387,342)"/>
<path d="M0 0 C0.33 0.66 0.66 1.32 1 2 C1.66 2.33 2.32 2.66 3 3 C2.34 4.65 1.68 6.3 1 8 C-0.32 6.35 -1.64 4.7 -3 3 C-2.01 2.01 -1.02 1.02 0 0 Z " fill="#2F2F2F" transform="translate(299,63)"/>
<path d="M0 0 C0 2.95274099 -0.43891831 4.49058403 -1.5 7.1875 C-1.7784375 7.90292969 -2.056875 8.61835938 -2.34375 9.35546875 C-2.5603125 9.89816406 -2.776875 10.44085938 -3 11 C-3.66 10.67 -4.32 10.34 -5 10 C-4.4454626 6.67277559 -3.75986957 3.8986087 -2 1 C-1.34 0.67 -0.68 0.34 0 0 Z " fill="#454545" transform="translate(111,335)"/>
<path d="M0 0 C1.42944945 2.35438733 2.08661261 3.48032433 1.625 6.25 C1.41875 6.8275 1.2125 7.405 1 8 C-1.475 7.01 -1.475 7.01 -4 6 C-4 5.34 -4 4.68 -4 4 C-3.01 3.67 -2.02 3.34 -1 3 C-0.67 2.01 -0.34 1.02 0 0 Z " fill="#0D0D0D" transform="translate(350,291)"/>
<path d="M0 0 C3.77545388 1.09068668 6.47043472 1.9083091 9 5 C8.05125 4.814375 7.1025 4.62875 6.125 4.4375 C3.10131207 3.71313368 3.10131207 3.71313368 1 5 C0.67 3.35 0.34 1.7 0 0 Z " fill="#333333" transform="translate(327,176)"/>
<path d="M0 0 C0.33 0 0.66 0 1 0 C1.33 1.65 1.66 3.3 2 5 C2.66 5 3.32 5 4 5 C4 6.32 4 7.64 4 9 C2.68 8.67 1.36 8.34 0 8 C-0.98120464 4.94736336 -0.98120464 3.05263664 0 0 Z " fill="#2F2F2F" transform="translate(493,323)"/>
<path d="M0 0 C2.79872437 2.52788007 4.45773019 4.20411134 5 8 C2.4636387 6.98545548 1.20648539 6.3146444 -0.3125 4 C-0.539375 3.34 -0.76625 2.68 -1 2 C-0.67 1.34 -0.34 0.68 0 0 Z " fill="#474747" transform="translate(377,188)"/>
<path d="M0 0 C0.75 1.625 0.75 1.625 1 4 C-0.9375 7.25 -0.9375 7.25 -3 10 C-4.125 6.25 -4.125 6.25 -3 4 C-2.34 4 -1.68 4 -1 4 C-0.67 2.68 -0.34 1.36 0 0 Z " fill="#4E4E4E" transform="translate(287,79)"/>
<path d="M0 0 C0.99 0.33 1.98 0.66 3 1 C2.67 2.32 2.34 3.64 2 5 C0.68 5 -0.64 5 -2 5 C-1.34 3.35 -0.68 1.7 0 0 Z " fill="#212121" transform="translate(312,77)"/>
<path d="M0 0 C1.485 0.99 1.485 0.99 3 2 C2.67 2.99 2.34 3.98 2 5 C1.34 5 0.68 5 0 5 C-0.33 5.99 -0.66 6.98 -1 8 C-1.04241723 5.66705225 -1.04092937 3.33297433 -1 1 C-0.67 0.67 -0.34 0.34 0 0 Z " fill="#0C0C0C" transform="translate(188,318)"/>
<path d="M0 0 C2.97 0.495 2.97 0.495 6 1 C5.67 2.65 5.34 4.3 5 6 C3.31237149 4.3545622 1.6459651 2.68711423 0 1 C0 0.67 0 0.34 0 0 Z " fill="#474747" transform="translate(146,290)"/>
<path d="M0 0 C4.39158329 1.4638611 4.87947433 3.97831338 7 8 C6.01 8 5.02 8 4 8 C2.68 5.36 1.36 2.72 0 0 Z " fill="#5D5D5D" transform="translate(327,119)"/>
<path d="M0 0 C0.66 0 1.32 0 2 0 C2.33 2.64 2.66 5.28 3 8 C2.01 7.67 1.02 7.34 0 7 C0 4.69 0 2.38 0 0 Z " fill="#5E5E5E" transform="translate(322,284)"/>
<path d="M0 0 C1.5 1.3125 1.5 1.3125 3 3 C3 3.99 3 4.98 3 6 C1.68 6 0.36 6 -1 6 C-0.67 4.02 -0.34 2.04 0 0 Z " fill="#424242" transform="translate(338,120)"/>
<path d="M0 0 C2.34058637 2.12780579 3.70700306 4.11562221 5 7 C1.125 6.125 1.125 6.125 0 5 C-0.04063832 3.33382885 -0.042721 1.66611905 0 0 Z " fill="#4F4F4F" transform="translate(309,70)"/>
<path d="M0 0 C2 1 2 1 2 1 Z " fill="#000000" transform="translate(191,349)"/>
<path d="" fill="#000000" transform="translate(0,0)"/>
</svg>
