<?xml version="1.0" encoding="UTF-8"?>
<svg version="1.1" xmlns="http://www.w3.org/2000/svg" width="364" height="286">
<path d="M0 0 C3.82349452 1.27449817 4.1362998 2.48076464 6.08203125 5.94140625 C6.67685303 6.98731934 7.2716748 8.03323242 7.88452148 9.11083984 C8.52075439 10.2498877 9.1569873 11.38893555 9.8125 12.5625 C10.48472989 13.75009453 11.15800322 14.93709897 11.83227539 16.12353516 C12.87116427 17.95202395 13.90928386 19.78091021 14.9440155 21.61175537 C18.21613845 27.40095879 21.57124069 33.14008913 24.9375 38.875 C30.36108524 48.14475016 35.70324947 57.45938339 41.02023315 66.79046631 C45.63484029 74.88707843 50.29084886 82.95788801 55 91 C60.4035646 100.22800529 65.72652361 109.4999467 71.02050781 118.79101562 C75.63502804 126.88744133 80.29095255 134.95806509 85 143 C90.05630923 151.63497557 95.04607122 160.30606319 100 169 C105.53612325 178.71468905 111.12513756 188.39651756 116.77246094 198.04711914 C121.76781161 206.58712175 126.71540964 215.15416626 131.64306641 223.73339844 C134.44564236 228.60583136 137.26321487 233.46499031 140.16796875 238.27734375 C140.87711426 239.45695679 140.87711426 239.45695679 141.60058594 240.66040039 C142.46205423 242.08742356 143.33067312 243.5101665 144.20800781 244.92749023 C146.26113969 248.33269538 147 249.91014277 147 254 C50.64 254 -45.72 254 -145 254 C-145 252.02 -145 250.04 -145 248 C-144.34 248 -143.68 248 -143 248 C-142.7313916 247.28320068 -142.4627832 246.56640137 -142.18603516 245.82788086 C-140.9889117 242.97356201 -139.59542453 240.41866303 -138.0234375 237.75390625 C-137.43949219 236.75939453 -136.85554688 235.76488281 -136.25390625 234.74023438 C-135.63386719 233.69158203 -135.01382813 232.64292969 -134.375 231.5625 C-133.09068625 229.37657204 -131.80682861 227.19037603 -130.5234375 225.00390625 C-129.90823242 223.95734863 -129.29302734 222.91079102 -128.65917969 221.83251953 C-126.7473936 218.56875523 -124.86695419 215.28958959 -123 212 C-119.54809658 205.92991559 -116.02621031 199.90217885 -112.5 193.875 C-107.27898512 184.94729057 -102.12039381 175.98562389 -97 167 C-87.80040052 150.86093139 -78.51560072 134.7726716 -68.90405273 118.87475586 C-66.37995584 114.68179527 -64.02185969 110.42018499 -61.70703125 106.109375 C-58.07676175 99.49680172 -54.23539805 93.00204373 -50.44238281 86.48193359 C-48.62896423 83.36155219 -46.82285785 80.23697645 -45.0168457 77.11230469 C-41.57579726 71.15919608 -38.12655619 65.21117561 -34.65234375 59.27734375 C-28.73291347 49.16419239 -22.86391756 39.02938512 -17.125 28.8125 C-12.59584015 20.75146385 -7.91974022 12.82796104 -3 5 C-1.99595765 3.33576542 -0.99467579 1.66984965 0 0 Z M1 25 C-3.93186926 31.55070347 -7.88238159 38.83028079 -11.9375 45.9375 C-12.92992138 47.6673456 -13.92234765 49.39718843 -14.91506958 51.12686157 C-15.93764091 52.90939872 -16.95890134 54.69268197 -17.97998047 56.47607422 C-21.139699 61.99189769 -24.32106868 67.49523567 -27.5 73 C-28.7488157 75.16399453 -29.9975133 77.32805723 -31.24609375 79.4921875 C-31.86468262 80.56436523 -32.48327148 81.63654297 -33.12060547 82.74121094 C-35.00980166 86.01699566 -36.89764109 89.29355893 -38.78515625 92.5703125 C-45.40222892 104.0544882 -52.04633977 115.52196894 -58.73291016 126.96582031 C-64.89919054 137.52620282 -71.0049595 148.12126766 -77.10888672 158.71777344 C-80.86028024 165.22871257 -84.61690994 171.73663194 -88.37255859 178.24511719 C-91.51182246 183.68585336 -94.64981497 189.12731477 -97.78515625 194.5703125 C-106.14258899 209.07491223 -114.54924384 223.54958134 -123 238 C-120.08043736 239.33660477 -120.08043736 239.33660477 -117.62182617 238.01879883 C-116.68830322 237.50341553 -115.75478027 236.98803223 -114.79296875 236.45703125 C-113.74302734 235.88404297 -112.69308594 235.31105469 -111.61132812 234.72070312 C-110.48146484 234.09099609 -109.35160156 233.46128906 -108.1875 232.8125 C-107.006389 232.16374838 -105.82474154 231.51597254 -104.64257812 230.86914062 C-102.23582393 229.55035271 -99.83216708 228.22618088 -97.43115234 226.89697266 C-93.50591155 224.72683455 -89.5695948 222.57768094 -85.63061523 220.43261719 C-83.8624984 219.46971143 -82.09509343 218.50549746 -80.32836914 217.54003906 C-73.27555522 213.68623673 -66.20319724 209.86945058 -59.125 206.0625 C-50.62025295 201.48791022 -42.11797528 196.90891633 -33.625 192.3125 C-32.64708496 191.78374268 -31.66916992 191.25498535 -30.66162109 190.71020508 C-25.82543998 188.09070808 -21.00119357 185.45206964 -16.1953125 182.77734375 C-15.27669434 182.2671167 -14.35807617 181.75688965 -13.41162109 181.23120117 C-11.68565748 180.27069657 -9.96187905 179.30625064 -8.24072266 178.3371582 C-7.47550293 177.91136475 -6.7102832 177.48557129 -5.921875 177.046875 C-5.25768555 176.67401367 -4.59349609 176.30115234 -3.90917969 175.91699219 C-1.81447172 174.91088949 -0.32599906 174.21948963 2 174 C4.67529297 175.07299805 4.67529297 175.07299805 7.7421875 176.76171875 C8.87897949 177.37974365 10.01577148 177.99776855 11.18701172 178.63452148 C12.41644549 179.31866018 13.64577228 180.00299116 14.875 180.6875 C16.1492767 181.38533962 17.42418656 182.08202425 18.69970703 182.77758789 C21.89094072 184.52093723 25.07485372 186.27718842 28.25683594 188.03735352 C31.60007077 189.88362452 34.95430844 191.70971318 38.30761719 193.53759766 C40.02796501 194.47564201 41.74735818 195.41543917 43.46582031 196.35693359 C48.82878117 199.29099597 54.21130156 202.18591929 59.609375 205.0546875 C60.27152008 205.40674759 60.93366516 205.75880768 61.61587524 206.12153625 C64.87465508 207.85346224 68.13505807 209.58222904 71.39794922 211.30639648 C78.14355254 214.88036903 84.80334961 218.56825046 91.3737793 222.45825195 C94.82715941 224.48559186 98.32822128 226.41327922 101.85546875 228.30859375 C104.36770504 229.659896 106.86673801 231.0303325 109.36328125 232.41015625 C110.90860543 233.25306035 112.45417856 234.0955082 114 234.9375 C114.7427417 235.35177246 115.4854834 235.76604492 116.25073242 236.19287109 C118.12731792 237.2061108 120.06101241 238.11199383 122 239 C122.99 238.67 123.98 238.34 125 238 C124.50185791 237.17761841 124.50185791 237.17761841 123.99365234 236.33862305 C112.97527517 218.12562394 112.97527517 218.12562394 108.58984375 209.9140625 C103.41445131 200.42796235 97.8446236 191.14940596 92.38671875 181.82421875 C91.77248047 180.77387451 91.15824219 179.72353027 90.52539062 178.64135742 C89.33425374 176.60544372 88.14163732 174.57039463 86.94726562 172.53637695 C84.22799008 167.88989758 81.55929371 163.22677677 78.99609375 158.4921875 C75.91204955 152.79591373 72.65763315 147.20857887 69.375 141.625 C64.8980351 133.98042142 60.4475524 126.32268971 56.0625 118.625 C46.23757273 101.38525086 36.3033622 84.20924131 26.29199219 67.07714844 C21.79573737 59.37766274 17.32905654 51.6614431 12.875 43.9375 C12.24722656 42.84888672 11.61945313 41.76027344 10.97265625 40.63867188 C7.97185672 35.4314021 4.97702404 30.22090037 2 25 C1.67 25 1.34 25 1 25 Z " fill="#0F0F0F" transform="translate(188,8)"/>
<path d="M0 0 C1 3 1 3 0.1015625 5.171875 C-0.38570312 6.02265625 -0.87296875 6.8734375 -1.375 7.75 C-1.9215625 8.71292969 -2.468125 9.67585937 -3.03125 10.66796875 C-4.47770335 13.11603364 -5.93457023 15.55546885 -7.40625 17.98828125 C-7.81439941 18.66342773 -8.22254883 19.33857422 -8.64306641 20.03417969 C-9.45765624 21.37536326 -10.27756744 22.7133307 -11.10302734 24.04785156 C-13.27243338 27.28554845 -13.27243338 27.28554845 -14 31 C-14.66 31 -15.32 31 -16 31 C-16.2475 31.7425 -16.495 32.485 -16.75 33.25 C-18.09147301 36.20124062 -19.60905526 37.84814974 -22 40 C-20.30152912 35.31074343 -17.93373827 31.08524194 -15.5 26.75 C-15.06510254 25.97092285 -14.63020508 25.1918457 -14.18212891 24.38916016 C-9.58111867 16.18520752 -4.80903528 8.08327207 0 0 Z " fill="#040404" transform="translate(120,125)"/>
<path d="M0 0 C0.66 0.33 1.32 0.66 2 1 C-3.86838654 11.74515765 -9.73471278 22.47944944 -16 33 C-16.66 32.34 -17.32 31.68 -18 31 C-17.27683594 29.91332031 -17.27683594 29.91332031 -16.5390625 28.8046875 C-15.90742188 27.83789062 -15.27578125 26.87109375 -14.625 25.875 C-13.99851563 24.92367187 -13.37203125 23.97234375 -12.7265625 22.9921875 C-11.02084643 20.03612752 -10.03399732 17.23864359 -9 14 C-7.68334336 12.32012773 -6.34736973 10.65533995 -5 9 C-3.24802368 6.04509977 -1.61232009 3.03301197 0 0 Z " fill="#030303" transform="translate(162,75)"/>
<path d="M0 0 C4.56263526 4.10170187 7.19611755 9.82162405 10.25 15.0625 C10.91257812 16.17689453 11.57515625 17.29128906 12.2578125 18.43945312 C12.87914062 19.50228516 13.50046875 20.56511719 14.140625 21.66015625 C14.71329102 22.63605713 15.28595703 23.61195801 15.87597656 24.61743164 C16.2469043 25.4036792 16.61783203 26.18992676 17 27 C16.67 27.66 16.34 28.32 16 29 C12.38154433 24.96403022 9.98418959 20.47677185 7.46484375 15.71875 C5.55545151 12.174918 3.48884036 8.76041834 1.3125 5.375 C0 3 0 3 0 0 Z " fill="#020202" transform="translate(251,115)"/>
<path d="M0 0 C0.66 0.33 1.32 0.66 2 1 C-0.97 6.28 -3.94 11.56 -7 17 C-7.66 16.34 -8.32 15.68 -9 15 C-8.2575 13.88625 -8.2575 13.88625 -7.5 12.75 C-5.68076525 9.93681812 -5.68076525 9.93681812 -6 6 C-5.01 5.67 -4.02 5.34 -3 5 C-1.30117552 2.50240018 -1.30117552 2.50240018 0 0 Z " fill="#050505" transform="translate(87,205)"/>
<path d="M0 0 C1.19692469 3.59077406 0.73508446 4.24312273 -0.8125 7.5625 C-1.16957031 8.34753906 -1.52664062 9.13257813 -1.89453125 9.94140625 C-3 12 -3 12 -5 14 C-5.66 14 -6.32 14 -7 14 C-6.34097701 10.42959697 -4.83770842 7.82267745 -2.9375 4.75 C-2.38964844 3.85796875 -1.84179688 2.9659375 -1.27734375 2.046875 C-0.64505859 1.03367188 -0.64505859 1.03367188 0 0 Z " fill="#070707" transform="translate(56,236)"/>
<path d="M0 0 C3.18094931 1.09687907 3.95577313 1.92005143 5.625 4.9375 C6.07875 5.948125 6.5325 6.95875 7 8 C7.99 9.485 7.99 9.485 9 11 C8.67 11.99 8.34 12.98 8 14 C7.03980636 12.41779413 6.08192202 10.83418669 5.125 9.25 C4.59132813 8.36828125 4.05765625 7.4865625 3.5078125 6.578125 C2.24403334 4.41725907 1.08501165 2.25429605 0 0 Z " fill="#060606" transform="translate(291,209)"/>
<path d="M0 0 C1 3 1 3 -0.4375 6.1875 C-1.2109375 7.5796875 -1.2109375 7.5796875 -2 9 C-1.34 9 -0.68 9 0 9 C0 9.66 0 10.32 0 11 C-1.32 11 -2.64 11 -4 11 C-4 9.02 -4 7.04 -4 5 C-3.34 5 -2.68 5 -2 5 C-1.34 3.35 -0.68 1.7 0 0 Z " fill="#050505" transform="translate(47,251)"/>
<path d="M0 0 C2.63978826 3.18595135 5.10498388 6.30970546 7 10 C6.67 10.66 6.34 11.32 6 12 C2.28930302 8.00386479 0.40208382 5.62917348 0 0 Z " fill="#050505" transform="translate(224,68)"/>
<path d="M0 0 C3 1 3 1 4.1875 3.0625 C4.455625 3.701875 4.72375 4.34125 5 5 C4.401875 4.814375 3.80375 4.62875 3.1875 4.4375 C0.83591238 3.77906313 0.83591238 3.77906313 -2 5 C-1.125 1.125 -1.125 1.125 0 0 Z M-3 5 C-2.67 5.66 -2.34 6.32 -2 7 C-2.66 6.67 -3.32 6.34 -4 6 C-3.67 5.67 -3.34 5.34 -3 5 Z " fill="#050505" transform="translate(188,8)"/>
<path d="M0 0 C0.66 0.33 1.32 0.66 2 1 C1.25 2.9375 1.25 2.9375 0 5 C-2 5.8125 -2 5.8125 -4 6 C-4.66 5.67 -5.32 5.34 -6 5 C-6 4.34 -6 3.68 -6 3 C-4.03533587 1.93224776 -2.03144641 0.93446535 0 0 Z " fill="#0A0A0A" transform="translate(142,206)"/>
<path d="M0 0 C-0.969375 0.268125 -1.93875 0.53625 -2.9375 0.8125 C-3.948125 1.204375 -4.95875 1.59625 -6 2 C-6.33 2.99 -6.66 3.98 -7 5 C-8.65 5 -10.3 5 -12 5 C-4.28571429 -1.42857143 -4.28571429 -1.42857143 0 0 Z " fill="#050505" transform="translate(163,197)"/>
<path d="M0 0 C0.66 1.32 1.32 2.64 2 4 C0.35 5.65 -1.3 7.3 -3 9 C-3.33 8.01 -3.66 7.02 -4 6 C-2.0625 2.8125 -2.0625 2.8125 0 0 Z " fill="#070707" transform="translate(156,63)"/>
</svg>
